<?xml version="1.0" standalone="no"?>
<!DOCTYPE svg PUBLIC "-//W3C//DTD SVG 20010904//EN"
 "http://www.w3.org/TR/2001/REC-SVG-20010904/DTD/svg10.dtd">
<svg version="1.0" xmlns="http://www.w3.org/2000/svg"
 width="16.000000pt" height="16.000000pt" viewBox="0 0 16.000000 16.000000"
 preserveAspectRatio="xMidYMid meet">
<metadata>
Created by potrace 1.11, written by Peter Selinger 2001-2013
</metadata>
<g transform="translate(0.000000,16.000000) scale(0.003478,-0.003478)"
fill="#000000" stroke="none">
<path d="M136 4585 c-57 -20 -104 -71 -122 -130 -21 -74 -17 -4296 5 -4335 20
-37 62 -79 96 -98 27 -15 92 -17 618 -20 l589 -3 -6 31 c-3 16 -9 45 -13 63
-4 17 -6 35 -5 38 1 4 4 32 7 64 2 31 8 62 12 68 8 13 10 31 18 162 3 57 11
102 17 106 16 10 66 -30 74 -59 5 -18 9 -20 20 -11 23 19 44 -7 44 -57 0 -24
6 -49 15 -58 8 -8 15 -32 15 -55 0 -23 5 -41 10 -41 6 0 10 7 10 15 0 8 4 15
10 15 5 0 9 -8 8 -17 -3 -30 22 -81 43 -86 10 -3 23 -17 29 -31 5 -14 14 -26
19 -26 5 0 13 -10 16 -21 4 -12 26 -39 49 -60 l41 -39 97 0 c68 0 98 4 101 13
4 8 8 9 14 1 12 -16 290 -19 309 -3 8 7 36 13 63 14 26 1 53 5 60 9 7 4 23 5
36 2 17 -4 32 1 51 19 16 14 43 33 61 42 33 15 38 27 27 58 -6 15 -8 15 -24 0
-12 -11 -20 -13 -25 -6 -8 14 -42 14 -47 0 -3 -8 -10 -6 -20 5 -20 19 -45 12
-53 -15 -5 -16 -10 -18 -21 -8 -8 6 -14 8 -14 3 0 -5 -9 9 -21 31 -28 54 -37
61 -51 47 -6 -6 -8 -15 -4 -19 4 -4 11 -1 17 7 7 11 8 6 3 -15 -9 -38 -11 -40
-27 -26 -11 9 -17 8 -27 -4 -14 -17 -48 -15 -59 4 -6 10 -10 9 -14 -3 -4 -9
-14 -13 -27 -11 -12 2 -23 -2 -27 -10 -8 -22 -18 -18 -32 12 -10 22 -14 24
-22 12 -5 -7 -9 -10 -9 -5 0 5 -9 1 -21 -9 -20 -19 -20 -19 -10 7 9 23 8 26
-6 21 -12 -5 -15 -2 -10 9 4 12 1 14 -14 11 -10 -3 -19 0 -19 6 0 6 -7 11 -15
11 -8 0 -15 7 -15 15 0 8 -4 15 -10 15 -5 0 -10 -9 -10 -19 0 -11 -4 -23 -10
-26 -5 -3 -7 0 -4 9 3 8 -3 19 -15 25 -29 16 -66 53 -74 74 -5 13 -13 16 -27
12 -20 -6 -28 9 -10 20 18 11 10 26 -10 20 -15 -5 -18 -3 -14 9 11 28 -5 37
-36 21 -16 -8 -31 -15 -33 -15 -10 0 -14 56 -6 78 9 23 8 23 -23 17 -33 -7
-33 -7 -11 10 13 9 23 22 23 30 0 18 -21 30 -29 17 -4 -6 -11 -8 -16 -4 -14
10 -12 35 3 45 17 11 15 27 -4 27 -13 0 -14 3 -4 15 10 12 7 15 -15 21 -17 4
-23 9 -15 14 18 11 7 46 -13 42 -22 -4 -23 31 -2 48 14 11 13 15 -6 33 -13 12
-36 21 -55 21 -18 0 -32 2 -32 5 2 13 -15 41 -26 41 -12 1 -46 62 -46 86 0 34
-26 95 -43 100 -14 4 -17 12 -13 29 4 14 -1 28 -12 38 -20 19 -72 41 -89 38
-15 -2 -26 16 -14 24 22 13 -20 75 -51 75 -10 0 -18 5 -18 10 0 6 5 10 12 10
9 0 9 3 1 11 -13 13 -34 -3 -46 -31 -4 -11 -6 -9 -6 5 -1 12 3 25 8 30 5 6 7
23 4 38 -5 24 -9 28 -29 23 -20 -5 -26 -1 -34 19 -5 14 -7 32 -3 41 4 10 0 22
-9 28 -8 6 -23 35 -33 64 -11 29 -25 58 -31 63 -8 6 -9 21 -4 45 6 27 5 37 -6
41 -10 4 -14 24 -14 73 0 38 -4 72 -10 75 -14 9 -12 42 2 49 9 3 8 8 -5 16
-12 8 -17 23 -16 53 2 46 -9 106 -21 122 -4 6 -6 38 -5 72 1 38 -2 60 -8 56
-6 -4 -8 5 -5 20 6 33 -7 56 -23 40 -7 -7 -9 -32 -5 -69 3 -33 7 -81 9 -107 2
-26 9 -53 15 -59 14 -14 16 -98 3 -98 -33 0 -73 162 -87 350 -3 47 -12 99 -20
117 -8 17 -17 62 -20 100 -3 37 -8 73 -11 78 -4 6 -1 6 5 0 7 -6 20 -42 30
-80 27 -107 36 -112 42 -25 7 106 24 89 25 -25 0 -52 3 -95 8 -95 4 0 7 -16 7
-35 0 -19 4 -35 10 -35 11 0 20 49 18 100 -2 32 5 96 32 320 12 95 10 621 -1
614 -13 -8 -15 99 -2 125 10 20 8 27 -8 45 -15 16 -19 29 -14 51 14 62 9 115
-10 115 -12 0 -15 11 -13 53 2 47 1 52 -17 49 -18 -4 -18 -2 4 22 14 14 28 26
33 26 15 0 68 53 68 67 0 17 25 43 57 60 19 10 24 10 21 0 -3 -6 -14 -16 -26
-22 -15 -6 -20 -16 -16 -27 3 -10 -2 -28 -10 -40 -21 -29 -20 -48 2 -48 16 -1
16 -1 -1 -14 -14 -11 -15 -46 -1 -46 8 0 49 45 47 51 -1 3 9 5 23 3 18 -2 36
8 61 32 38 37 49 41 56 22 4 -10 8 -10 16 2 5 8 7 18 5 22 -3 4 1 8 8 8 7 0
25 7 41 14 15 8 27 11 27 6 0 -11 -35 -31 -42 -24 -3 3 -8 -7 -10 -21 -3 -14
-2 -25 1 -25 11 1 73 61 75 73 2 13 83 101 94 103 20 3 72 27 68 31 -13 13 80
67 96 56 6 -3 8 -1 4 5 -6 10 67 76 75 67 3 -2 22 13 42 34 23 24 51 41 73 45
20 4 50 22 70 42 20 18 39 34 44 34 4 0 58 25 118 55 61 30 123 55 139 55 15
0 39 6 53 13 15 7 72 14 140 15 64 1 116 7 118 12 5 13 47 13 92 0 19 -5 72
-11 117 -14 68 -3 91 -9 140 -35 69 -38 178 -67 278 -76 11 -1 34 -8 50 -17
17 -8 43 -18 58 -22 15 -4 25 -11 22 -16 -3 -6 3 -10 14 -10 25 0 51 -10 51
-20 0 -19 -30 -17 -61 4 -19 12 -54 27 -79 33 -25 6 -55 14 -67 18 -15 5 -23
3 -23 -4 0 -6 5 -11 11 -11 6 0 38 -13 71 -30 32 -16 65 -30 73 -30 8 0 15 -5
15 -11 0 -7 -11 -9 -30 -5 -19 3 -29 2 -25 -4 3 -6 -1 -10 -10 -10 -8 0 -18 7
-21 15 -4 10 -20 15 -50 15 -24 0 -44 -3 -44 -6 0 -15 57 -64 75 -64 17 0 17
-2 5 -10 -12 -8 -12 -10 5 -10 26 0 87 -59 116 -110 13 -22 26 -40 31 -40 4 0
8 -7 8 -15 0 -8 5 -15 10 -15 6 0 15 -11 21 -24 6 -13 20 -27 31 -29 19 -5 21
-26 3 -39 -6 -4 -2 -8 8 -8 11 0 17 -8 17 -22 0 -12 6 -29 14 -37 7 -9 18 -49
25 -89 6 -41 19 -88 28 -105 l16 -31 18 60 c21 66 25 196 8 257 -8 29 -7 42 4
57 12 17 16 18 26 6 8 -10 9 -16 1 -21 -5 -3 -8 -16 -6 -28 3 -12 8 -44 12
-72 6 -48 7 -49 15 -20 5 17 6 61 2 99 -4 49 -3 67 5 62 6 -3 13 -32 17 -64 3
-31 13 -69 21 -84 7 -14 14 -49 14 -78 0 -28 5 -81 10 -118 8 -51 7 -77 -2
-108 -12 -37 -15 -41 -35 -33 -17 6 -23 16 -23 38 0 16 -4 32 -9 35 -16 10
-30 -95 -17 -126 10 -22 0 -38 -24 -38 -13 0 -21 -10 -25 -32 -4 -17 -16 -47
-26 -65 -11 -19 -19 -49 -19 -68 0 -18 -4 -36 -9 -39 -5 -3 -7 -54 -5 -113 5
-131 9 -171 30 -293 9 -52 18 -112 21 -132 4 -28 10 -38 23 -38 10 0 21 6 23
13 3 7 6 5 6 -5 1 -10 6 -18 11 -18 6 0 10 19 8 45 -2 26 -8 45 -15 45 -17 0
-20 49 -6 94 7 21 13 51 13 67 0 34 10 37 35 9 17 -19 19 -46 19 -373 l1 -352
-29 -55 c-23 -44 -30 -73 -36 -154 -5 -55 -6 -115 -3 -133 3 -20 1 -33 -5 -33
-6 0 -7 -10 -3 -27 9 -32 -4 -98 -25 -130 -8 -12 -14 -33 -14 -45 0 -13 -7
-34 -16 -46 -9 -13 -13 -30 -10 -38 3 -9 -8 -48 -25 -87 -17 -40 -31 -81 -32
-92 0 -11 -9 -31 -19 -44 -10 -13 -18 -30 -18 -37 0 -8 -7 -14 -15 -14 -8 0
-15 -5 -15 -11 0 -7 -8 -19 -18 -28 -31 -29 -50 -76 -39 -96 7 -13 6 -20 -5
-26 -10 -5 -14 -18 -11 -33 3 -13 0 -27 -6 -31 -7 -3 -10 -1 -9 6 2 7 -4 14
-13 16 -10 2 -16 -2 -16 -9 1 -7 -3 -30 -7 -50 -7 -30 -13 -38 -30 -38 -19 0
-25 -9 -35 -48 -6 -26 -14 -57 -16 -70 -5 -31 -25 -54 -42 -48 -10 4 -11 1 -3
-14 13 -24 13 -40 0 -20 -9 13 -12 12 -25 -4 -8 -10 -12 -23 -9 -27 3 -5 1 -9
-4 -9 -5 0 -24 -30 -43 -67 -19 -38 -36 -70 -39 -73 -3 -3 -15 -25 -28 -50
-12 -25 -37 -57 -54 -70 -17 -14 -46 -40 -64 -59 -21 -22 -37 -32 -48 -28 -10
4 -22 -2 -33 -19 -10 -16 -23 -24 -34 -21 -12 3 -20 -2 -25 -15 -3 -11 -12
-17 -19 -14 -24 9 -66 -17 -63 -39 3 -18 10 -20 66 -19 48 2 66 6 76 20 18 24
53 28 59 6 3 -10 5 -6 6 11 1 27 63 102 86 102 13 1 65 50 65 62 0 6 9 20 20
33 11 13 20 34 20 47 0 25 18 30 39 10 11 -10 13 -8 8 10 -3 14 2 28 15 40 11
9 17 25 15 35 -3 11 2 22 15 29 11 6 17 17 14 24 -3 8 3 20 13 27 10 7 23 23
30 36 6 12 19 22 29 22 16 1 16 1 -1 11 -17 10 -16 12 3 39 11 15 20 35 20 43
0 22 17 30 23 13 3 -8 1 -16 -5 -18 -7 -3 -8 -10 -1 -23 24 -45 32 -72 36
-115 2 -25 12 -91 21 -147 26 -148 7 -218 -98 -375 l-46 -68 78 0 c68 0 79 3
91 21 10 18 10 23 0 30 -11 6 -10 11 3 26 8 10 15 25 15 33 0 14 11 43 51 130
8 19 17 48 20 65 2 16 15 63 29 104 34 104 29 193 -13 230 l-29 24 35 -6 c34
-7 63 -32 136 -120 18 -21 51 -51 75 -69 59 -41 119 -106 119 -127 0 -30 30
-61 88 -90 31 -16 68 -32 82 -36 33 -10 134 -78 187 -126 24 -22 46 -39 51
-39 5 0 22 -11 38 -25 27 -23 36 -25 134 -25 58 0 123 5 145 11 52 15 119 82
134 134 16 57 16 4253 0 4310 -15 52 -82 119 -134 134 -28 7 -253 11 -725 11
-682 0 -685 -1 -660 -20 14 -11 30 -20 36 -20 6 0 19 -9 29 -20 10 -11 22 -20
27 -20 15 0 73 -58 65 -66 -3 -4 -18 1 -31 10 -37 24 -39 20 -14 -24 13 -22
29 -40 36 -40 6 0 12 -5 12 -10 0 -9 16 -28 103 -120 26 -28 35 -50 20 -50 -3
0 -34 27 -69 60 -34 33 -67 60 -74 60 -6 0 -8 5 -4 12 4 6 3 8 -3 5 -6 -4 -28
7 -48 23 -23 18 -45 28 -55 25 -11 -3 -20 1 -24 11 -4 12 -14 15 -34 10 -15
-3 -21 -3 -14 0 19 9 14 22 -10 30 -12 3 -37 22 -56 40 l-35 34 31 0 c18 0 36
-7 44 -17 7 -10 35 -29 62 -42 26 -13 63 -37 82 -53 50 -44 41 -18 -13 39 -75
78 -109 98 -165 95 -43 -2 -49 1 -58 23 -8 22 -15 25 -60 25 -27 0 -50 -4 -50
-10 0 -6 -9 -5 -25 2 -18 8 -31 8 -54 -2 -16 -6 -35 -9 -42 -4 -7 4 -28 8 -48
10 -27 2 -31 1 -16 -5 11 -5 23 -7 26 -5 3 2 23 -13 45 -32 45 -42 66 -54 93
-54 10 0 21 -3 23 -8 2 -4 19 -17 38 -29 l35 -22 -45 3 c-45 3 -99 22 -112 40
-3 5 -19 11 -35 13 -87 11 -262 23 -354 23 l-107 1 -103 -50 c-56 -28 -111
-59 -122 -68 -10 -10 -24 -18 -30 -19 -29 -3 -56 -17 -50 -27 3 -6 1 -7 -6 -3
-6 4 -33 -8 -61 -28 -28 -20 -55 -36 -61 -36 -6 0 -9 -6 -6 -14 3 -8 1 -17 -6
-20 -9 -3 -8 -7 3 -15 13 -9 12 -12 -5 -25 -11 -9 -23 -16 -27 -16 -13 0 -87
-68 -81 -74 4 -3 1 -6 -5 -6 -7 0 -24 -13 -39 -29 -16 -15 -33 -26 -40 -24 -6
2 -14 -1 -18 -6 -3 -6 -1 -11 5 -11 18 0 -12 -25 -58 -49 -50 -25 -77 -28 -68
-5 3 9 6 20 6 25 0 5 10 9 23 9 16 0 18 3 9 9 -10 6 -7 10 12 15 16 4 24 11
20 17 -4 7 -9 7 -13 2 -3 -6 -19 -13 -36 -16 -28 -6 -28 -6 -7 5 12 6 21 16
19 22 -3 9 17 23 106 68 22 11 37 22 34 25 -3 2 -14 0 -25 -6 -11 -6 -28 -8
-38 -4 -12 4 -15 3 -10 -5 5 -8 -1 -12 -16 -12 -13 0 -34 -9 -48 -20 -14 -11
-33 -20 -42 -20 -9 0 -20 -4 -23 -10 -10 -16 -28 -12 -21 5 3 9 0 15 -10 15
-8 0 -18 -10 -23 -22 -5 -15 -10 -18 -15 -9 -6 9 -14 8 -33 -4 -33 -22 -45 -9
-14 16 22 18 22 19 3 19 -11 0 -22 -4 -24 -8 -1 -4 -19 -17 -39 -29 -27 -15
-40 -18 -48 -10 -7 7 -11 7 -11 1 0 -6 5 -15 12 -22 9 -9 8 -12 -5 -12 -9 0
-17 5 -17 10 0 6 -5 10 -11 10 -8 0 -8 -4 1 -15 16 -19 4 -35 -25 -35 -28 0
-37 -11 -25 -30 6 -9 -4 -23 -30 -45 -22 -18 -36 -35 -33 -39 4 -3 1 -6 -5 -6
-19 0 -14 25 8 45 11 10 20 22 20 27 0 4 -14 -4 -30 -19 -17 -15 -28 -33 -26
-40 3 -8 -5 -15 -19 -19 -14 -3 -25 -11 -25 -17 0 -6 -3 -7 -7 -4 -3 4 5 20
19 35 23 24 45 58 83 129 7 13 15 19 19 15 4 -4 6 0 4 8 -2 8 2 14 9 15 6 0
14 3 18 7 4 3 -5 5 -19 4 -14 -2 -26 0 -26 5 0 18 61 73 101 91 32 14 40 21
30 28 -11 6 -6 12 18 24 17 9 31 21 31 27 0 6 5 7 10 4 6 -4 25 2 43 13 17 11
43 23 57 27 14 4 33 14 43 23 9 8 20 12 24 9 3 -4 13 -1 22 7 9 8 30 17 46 21
l30 6 -34 -30 c-19 -17 -32 -33 -29 -37 8 -7 138 57 138 69 0 4 3 6 8 3 7 -4
81 19 170 55 61 24 26 3 -75 -46 -62 -31 -113 -60 -113 -66 0 -5 5 -7 10 -4 6
3 10 2 10 -3 0 -6 -15 -15 -32 -22 -18 -7 -27 -14 -21 -17 7 -2 23 3 35 11 12
9 29 16 38 16 13 0 13 -1 0 -10 -8 -5 -10 -10 -4 -10 18 0 24 13 12 27 -8 10
-8 17 1 26 10 9 11 8 6 -5 -8 -19 9 -25 20 -8 4 6 11 8 16 5 5 -4 9 -3 9 2 0
4 23 19 50 32 27 14 47 28 44 33 -3 4 2 5 10 2 9 -3 13 -11 10 -16 -4 -6 4 -4
17 2 34 18 38 24 12 16 -13 -4 -23 -4 -23 1 0 16 231 123 265 123 8 0 15 4 15
10 0 5 -12 8 -27 5 -16 -2 -75 -6 -132 -9 -112 -5 -147 -15 -60 -17 54 -2 54
-2 -17 -9 -141 -15 -177 -22 -163 -31 9 -6 0 -9 -26 -8 -31 0 -36 2 -20 9 49
21 -17 7 -95 -20 -47 -17 -89 -30 -95 -30 -11 1 46 28 85 40 20 7 21 8 6 9
-20 1 -20 1 0 16 18 14 18 15 -8 11 -14 -2 -35 -9 -46 -15 -26 -14 -35 -14
-27 -1 7 12 -61 5 -100 -10 -33 -12 -64 -48 -65 -73 0 -10 -14 -30 -30 -44
-34 -28 -34 -41 -1 -23 38 20 22 -7 -21 -36 -44 -30 -98 -83 -98 -96 0 -3 -9
-10 -20 -13 -26 -8 -82 -89 -75 -108 3 -7 -2 -20 -12 -28 -16 -13 -17 -12 -4
4 18 23 8 32 -13 11 -9 -9 -19 -14 -22 -12 -2 3 2 11 11 18 8 7 15 20 15 29
-1 10 -15 0 -40 -29 -22 -24 -42 -41 -45 -38 -7 6 -17 -1 -81 -56 -19 -15 -34
-23 -34 -18 0 6 8 17 18 24 24 17 41 45 21 33 -44 -26 -70 -49 -66 -59 3 -7
-4 -13 -14 -13 -16 -2 -16 1 6 25 29 31 31 42 8 42 -15 0 -15 1 -2 13 17 13
79 109 79 122 0 4 17 24 38 45 49 50 120 134 118 140 -2 10 44 59 99 105 l30
25 -43 -18 c-23 -11 -45 -22 -49 -25 -3 -4 -13 -7 -22 -7 -12 1 -11 5 7 20 14
12 18 21 12 25 -7 5 -5 12 7 20 10 7 18 19 18 26 0 6 14 19 30 28 75 42 93 60
58 62 -15 0 -15 2 2 9 12 5 -199 9 -495 9 -413 0 -523 -3 -554 -14z m3118
-150 c-7 -17 -20 -20 -28 -6 -7 10 3 21 20 21 8 0 11 -6 8 -15z m-213 -50 c30
-19 63 -35 76 -35 12 0 38 -15 57 -34 20 -18 38 -31 41 -28 3 3 5 0 5 -6 0
-14 -27 -16 -32 -4 -1 5 -30 21 -63 37 -33 15 -79 41 -102 56 -23 16 -47 29
-53 29 -6 0 -8 5 -5 10 10 16 20 12 76 -25z m29 -75 c23 -18 23 -20 5 -19 -20
0 -55 21 -55 33 0 12 25 5 50 -14z m308 -18 c2 -7 -2 -10 -12 -6 -9 3 -16 11
-16 16 0 13 23 5 28 -10z m-1522 -17 c-11 -8 -25 -15 -30 -15 -6 1 0 7 14 15
32 19 40 18 16 0z m1574 -87 c0 -21 -16 -24 -23 -5 -2 6 -2 20 1 30 4 15 7 16
13 5 5 -7 9 -21 9 -30z m-45 12 c3 -5 2 -10 -4 -10 -5 0 -13 5 -16 10 -3 6 -2
10 4 10 5 0 13 -4 16 -10z m-1955 -195 c-10 -12 -10 -18 0 -30 7 -9 8 -15 2
-15 -17 0 -22 30 -10 50 7 10 14 17 17 15 2 -3 -2 -11 -9 -20z m-460 -15 c0
-5 -2 -10 -4 -10 -3 0 -8 5 -11 10 -3 6 -1 10 4 10 6 0 11 -4 11 -10z m-185
-19 c-3 -6 -11 -11 -16 -11 -5 0 -4 6 3 14 14 16 24 13 13 -3z m158 -51 c-3
-12 -8 -19 -11 -16 -5 6 5 36 12 36 2 0 2 -9 -1 -20z m87 -44 c0 -2 -7 -7 -16
-10 -8 -3 -12 -2 -9 4 6 10 25 14 25 6z m-76 -471 c3 -9 0 -15 -9 -15 -8 0
-15 7 -15 15 0 8 4 15 9 15 5 0 11 -7 15 -15z m-129 -755 c3 -5 1 -10 -4 -10
-6 0 -11 5 -11 10 0 6 2 10 4 10 3 0 8 -4 11 -10z m25 -40 c0 -5 -7 -10 -15
-10 -8 0 -15 5 -15 10 0 6 7 10 15 10 8 0 15 -4 15 -10z m674 -1865 c-4 -8
-11 -15 -16 -15 -6 0 -5 6 2 15 7 8 14 15 16 15 2 0 1 -7 -2 -15z m-184 -160
c0 -8 -4 -15 -10 -15 -5 0 -19 -9 -30 -20 -11 -11 -27 -20 -36 -20 -8 0 -12
-5 -9 -10 4 -6 -11 -18 -33 -28 -21 -9 -37 -22 -35 -28 3 -10 -50 -64 -63 -64
-4 0 -15 -10 -25 -22 -11 -11 -22 -18 -26 -15 -3 4 1 15 10 25 19 21 22 32 7
32 -5 0 -10 -7 -10 -15 0 -9 -7 -18 -16 -22 -8 -3 -13 -12 -10 -19 3 -9 -2
-14 -15 -14 -18 0 -17 4 13 43 51 67 91 107 105 107 7 0 13 4 13 8 0 12 117
76 168 91 1 1 2 -6 2 -14z m217 -1 c-3 -3 -12 -4 -19 -1 -8 3 -5 6 6 6 11 1
17 -2 13 -5z m-425 -263 c-5 -3 -12 -13 -15 -21 -4 -11 -7 -10 -12 8 -4 12
-11 22 -16 22 -5 0 -9 5 -9 10 0 6 9 10 20 10 11 0 20 6 21 13 0 6 5 1 10 -12
5 -14 6 -27 1 -30z m-102 12 c0 -3 -7 -14 -16 -24 -13 -14 -21 -16 -46 -7
l-31 11 24 13 c25 14 69 19 69 7z m65 -43 c3 -6 -4 -10 -17 -10 -18 0 -20 2
-8 10 19 12 18 12 25 0z m800 -222 c6 -6 0 -8 -19 -6 -16 2 -31 9 -34 17 -3
10 2 11 19 6 13 -4 29 -12 34 -17z m29 -34 c9 -23 8 -24 -13 -24 -22 0 -36 26
-18 34 20 8 25 7 31 -10z"/>
<path d="M1823 4593 c9 -2 25 -2 35 0 9 3 1 5 -18 5 -19 0 -27 -2 -17 -5z"/>
<path d="M2188 4595 c-3 -3 -50 -7 -104 -9 -126 -4 -205 -16 -222 -33 -16 -15
-44 -17 -58 -3 -6 6 -25 2 -53 -10 -23 -11 -47 -17 -52 -14 -16 10 -138 -41
-126 -52 8 -9 66 9 61 18 -4 6 6 8 22 6 20 -2 28 1 26 11 -2 8 3 11 10 8 14
-5 112 9 253 37 44 9 119 16 166 16 59 0 91 4 105 15 19 14 19 14 -2 15 -11 0
-23 -2 -26 -5z"/>
<path d="M2465 4580 c33 -11 65 -18 70 -16 16 6 -45 28 -90 32 -36 4 -34 3 20
-16z"/>
<path d="M1765 4580 c-8 -13 5 -13 25 0 13 8 13 10 -2 10 -9 0 -20 -4 -23 -10z"/>
<path d="M2158 4553 c12 -2 30 -2 40 0 9 3 -1 5 -23 4 -22 0 -30 -2 -17 -4z"/>
<path d="M2028 4543 c7 -3 16 -2 19 1 4 3 -2 6 -13 5 -11 0 -14 -3 -6 -6z"/>
<path d="M2130 4520 c-18 -12 -2 -12 25 0 13 6 15 9 5 9 -8 0 -22 -4 -30 -9z"/>
<path d="M1743 4493 c9 -2 25 -2 35 0 9 3 1 5 -18 5 -19 0 -27 -2 -17 -5z"/>
<path d="M2097 4484 c-16 -9 -27 -18 -24 -20 3 -3 20 4 38 15 39 24 28 28 -14
5z"/>
<path d="M1875 4410 c-3 -5 -2 -10 4 -10 5 0 13 5 16 10 3 6 2 10 -4 10 -5 0
-13 -4 -16 -10z"/>
<path d="M1027 4273 c-3 -5 1 -14 9 -20 8 -8 15 -9 19 -3 3 6 1 10 -5 10 -6 0
-8 5 -5 10 3 6 2 10 -4 10 -5 0 -12 -3 -14 -7z"/>
<path d="M1738 4257 c-32 -12 -34 -19 -13 -37 21 -18 40 -7 40 23 1 15 1 27 0
26 0 -1 -12 -6 -27 -12z"/>
<path d="M3020 4250 c20 -13 33 -13 25 0 -3 6 -14 10 -23 10 -15 0 -15 -2 -2
-10z"/>
<path d="M1008 4233 c7 -3 16 -2 19 1 4 3 -2 6 -13 5 -11 0 -14 -3 -6 -6z"/>
<path d="M1515 4230 c-3 -5 1 -10 9 -10 9 0 16 5 16 10 0 6 -4 10 -9 10 -6 0
-13 -4 -16 -10z"/>
<path d="M1240 4215 c-14 -8 -20 -14 -15 -14 6 0 21 6 35 14 14 8 21 14 15 14
-5 0 -21 -6 -35 -14z"/>
<path d="M1465 4200 c-13 -6 -15 -9 -5 -9 8 0 22 4 30 9 18 12 2 12 -25 0z"/>
<path d="M1095 4100 c3 -5 8 -10 11 -10 2 0 4 5 4 10 0 6 -5 10 -11 10 -5 0
-7 -4 -4 -10z"/>
<path d="M1140 4090 c-9 -6 -10 -10 -3 -10 6 0 15 5 18 10 8 12 4 12 -15 0z"/>
<path d="M855 4045 c-21 -20 -35 -38 -31 -42 3 -4 24 12 47 35 48 51 38 56
-16 7z"/>
<path d="M1106 3693 c-6 -14 -5 -15 5 -6 7 7 10 15 7 18 -3 3 -9 -2 -12 -12z"/>
<path d="M1140 3690 c0 -5 5 -10 10 -10 6 0 10 5 10 10 0 6 -4 10 -10 10 -5 0
-10 -4 -10 -10z"/>
<path d="M3540 3680 c0 -5 5 -10 10 -10 6 0 10 5 10 10 0 6 -4 10 -10 10 -5 0
-10 -4 -10 -10z"/>
<path d="M2765 2969 c-16 -5 -36 -7 -44 -4 -17 7 -53 -24 -44 -38 3 -6 1 -7
-5 -3 -7 4 -12 2 -12 -4 0 -6 -4 -9 -8 -6 -4 2 -14 0 -22 -5 -12 -9 -12 -12
-2 -16 10 -4 6 -13 -13 -33 -33 -35 -25 -54 19 -46 18 4 68 7 112 7 43 0 99 5
124 11 25 5 68 12 95 14 28 2 61 7 75 11 43 11 94 10 129 -4 18 -7 51 -13 72
-13 21 0 41 -4 44 -10 3 -5 22 -10 41 -10 19 0 33 -4 30 -9 -3 -4 3 -8 14 -7
44 2 23 29 -33 41 -15 3 -35 14 -45 25 -10 13 -29 20 -52 20 -19 0 -42 5 -50
10 -10 6 -11 10 -2 10 6 0 12 5 12 10 0 6 -11 8 -26 4 -20 -5 -25 -4 -19 5 5
9 1 12 -11 11 -33 -4 -37 0 -23 17 13 15 10 15 -36 10 -28 -3 -62 -9 -77 -13
-21 -5 -28 -3 -28 8 0 12 -18 15 -92 15 -51 0 -106 -4 -123 -8z m302 -45 c-3
-3 -12 -4 -19 -1 -8 3 -5 6 6 6 11 1 17 -2 13 -5z"/>
<path d="M1599 2906 c-2 -3 -51 -7 -108 -10 -112 -6 -206 -29 -215 -51 -3 -8
-13 -15 -22 -15 -13 0 -14 3 -5 14 16 19 -1 29 -31 17 -12 -5 -48 -25 -78 -45
-41 -28 -62 -36 -82 -32 -38 7 -58 -24 -58 -90 0 -79 27 -83 145 -24 127 64
168 72 355 74 139 1 165 -1 165 -14 0 -10 -27 -21 -95 -36 -150 -33 -287 -82
-328 -118 -70 -61 -74 -66 -57 -73 9 -3 14 -12 11 -20 -5 -11 2 -12 31 -7 20
4 56 7 80 7 24 0 46 4 49 8 3 5 26 9 51 9 37 0 44 3 39 16 -3 9 -6 17 -6 20 0
2 -8 1 -17 -2 -12 -4 -9 1 7 15 14 11 27 21 30 21 3 -1 16 -16 30 -35 l25 -34
195 3 c108 1 201 5 207 9 9 6 8 16 -3 42 -14 35 -14 35 11 35 15 0 24 4 20 10
-8 13 20 24 36 14 7 -4 28 -8 47 -10 33 -3 34 -2 29 26 -5 20 -1 34 10 46 16
15 15 18 -6 35 -17 14 -19 19 -7 19 22 0 9 28 -17 36 -21 7 -20 8 7 17 33 11
18 27 -26 27 -18 0 -28 5 -28 14 0 24 -18 28 -50 12 -16 -8 -32 -11 -35 -6 -3
5 1 10 7 13 7 2 -4 4 -24 4 -21 -1 -38 -5 -38 -9 0 -4 -4 -8 -10 -8 -5 0 -7 7
-4 15 4 8 1 15 -5 15 -6 0 -11 -5 -11 -12 0 -6 -11 -1 -25 12 -14 13 -25 21
-25 18 0 -6 -124 16 -151 26 -8 4 -17 4 -20 2z m81 -309 c0 -18 -21 -37 -40
-37 -14 0 -19 23 -11 48 3 9 51 -1 51 -11z m99 -18 c7 -10 22 -19 33 -19 17 0
18 -3 8 -15 -7 -8 -27 -15 -44 -15 -17 0 -46 -4 -64 -9 -33 -10 -42 -2 -18 18
7 6 16 25 20 42 5 26 9 29 28 24 13 -4 29 -15 37 -26z"/>
<path d="M3248 2903 c6 -2 18 -2 25 0 6 3 1 5 -13 5 -14 0 -19 -2 -12 -5z"/>
<path d="M2570 2893 c0 -6 -3 -18 -6 -27 -3 -9 -1 -16 5 -16 17 0 25 30 12 43
-8 8 -11 8 -11 0z"/>
<path d="M2767 2772 c-26 -2 -45 -6 -43 -10 3 -4 -3 -8 -12 -9 -9 -1 -35 -6
-57 -10 -40 -8 -40 -8 -41 -58 -1 -28 -3 -59 -5 -70 -4 -19 1 -20 71 -19 41 1
111 4 155 6 44 2 99 5 123 6 26 1 41 6 37 12 -3 6 -1 10 4 10 6 0 11 9 11 20
0 11 -7 20 -15 20 -8 0 -15 -4 -15 -10 0 -5 -14 -10 -31 -10 -24 0 -30 4 -25
15 3 9 0 15 -10 15 -8 0 -12 5 -9 10 8 13 85 13 85 0 0 -5 13 -7 29 -4 16 3
38 1 50 -5 25 -14 28 -41 5 -41 -9 0 -14 -5 -12 -12 2 -6 26 -12 54 -14 27 -1
61 -5 77 -9 21 -6 27 -4 27 10 0 12 5 15 20 10 31 -10 24 9 -19 48 -42 37
-109 62 -201 72 -30 3 -75 10 -100 15 -69 13 -101 16 -153 12z m103 -82 c-20
-13 -53 -13 -45 0 3 6 18 10 33 10 21 0 24 -2 12 -10z m-91 -32 c13 -34 4 -40
-50 -36 -48 4 -81 18 -41 18 12 0 26 9 32 20 14 27 49 26 59 -2z"/>
<path d="M3500 2514 c0 -8 5 -12 10 -9 6 3 10 10 10 16 0 5 -4 9 -10 9 -5 0
-10 -7 -10 -16z"/>
<path d="M3501 2464 c0 -11 3 -14 6 -6 3 7 2 16 -1 19 -3 4 -6 -2 -5 -13z"/>
<path d="M1990 1683 c-8 -3 -23 -12 -32 -20 -11 -10 -30 -14 -53 -11 -19 2
-35 0 -35 -4 0 -4 7 -8 15 -8 8 0 15 -5 15 -11 0 -5 16 -17 35 -24 19 -8 43
-25 54 -36 13 -14 27 -20 41 -16 28 7 50 -1 50 -19 0 -22 26 -16 43 9 l15 22
22 -23 c20 -21 23 -22 39 -7 10 8 26 15 37 14 10 -1 29 -1 42 -1 20 2 21 4 10
16 -8 7 -28 20 -44 29 -17 9 -45 29 -63 46 -18 17 -39 31 -46 31 -8 0 -17 5
-20 10 -6 10 -99 13 -125 3z"/>
<path d="M3067 1661 c-7 -29 10 -58 42 -69 35 -12 71 -65 71 -103 0 -32 20
-51 40 -39 21 13 17 86 -7 118 -11 15 -47 46 -80 69 -52 35 -62 39 -66 24z"/>
<path d="M2395 1561 c-27 -10 -56 -16 -62 -14 -7 3 -13 0 -13 -6 0 -6 9 -11
21 -11 11 0 17 -5 14 -10 -3 -6 4 -14 17 -19 13 -4 23 -14 24 -22 0 -8 2 -24
2 -36 1 -13 7 -23 13 -23 6 0 8 7 5 16 -5 14 0 15 39 10 50 -8 63 8 20 24 -14
5 -25 16 -25 25 0 8 -7 15 -15 15 -26 0 -17 20 15 34 23 9 27 15 18 24 -15 15
-13 15 -73 -7z"/>
<path d="M2033 1514 c-12 -13 -20 -24 -18 -24 2 0 -14 -18 -36 -41 -31 -32
-37 -44 -29 -54 6 -8 18 -11 26 -8 8 3 23 -5 35 -18 l20 -24 -4 28 c-2 15 0
27 4 27 5 0 9 13 9 29 0 20 8 35 23 46 17 12 19 17 8 24 -7 5 -11 13 -7 19 14
22 -10 19 -31 -4z"/>
<path d="M2227 1524 c-3 -5 1 -15 9 -22 16 -14 18 -5 5 17 -5 7 -11 9 -14 5z"/>
<path d="M2721 1514 c0 -11 3 -14 6 -6 3 7 2 16 -1 19 -3 4 -6 -2 -5 -13z"/>
<path d="M3085 1510 c-8 -13 -1 -24 14 -19 6 3 7 10 2 18 -6 10 -10 10 -16 1z"/>
<path d="M1478 1476 c-25 -18 -50 -35 -58 -38 -16 -5 -23 -38 -7 -38 8 0 7 -4
-1 -12 -14 -14 -16 -88 -2 -88 6 0 10 7 10 15 0 8 5 15 10 15 6 0 10 7 10 15
0 8 6 15 13 15 20 0 58 40 51 52 -5 7 -13 4 -25 -10 -20 -25 -39 -29 -39 -8 0
17 85 103 108 109 12 3 11 5 -5 6 -12 0 -41 -14 -65 -33z"/>
<path d="M2460 1490 c0 -5 5 -10 10 -10 6 0 10 5 10 10 0 6 -4 10 -10 10 -5 0
-10 -4 -10 -10z"/>
<path d="M2210 1449 c0 -5 5 -7 10 -4 6 3 10 8 10 11 0 2 -4 4 -10 4 -5 0 -10
-5 -10 -11z"/>
<path d="M1921 1424 c0 -11 3 -14 6 -6 3 7 2 16 -1 19 -3 4 -6 -2 -5 -13z"/>
<path d="M3177 1423 c-4 -3 -7 -17 -7 -31 l0 -25 20 26 c11 14 20 28 20 31 0
8 -25 8 -33 -1z"/>
<path d="M1874 1393 c3 -29 35 -40 44 -15 2 6 -3 12 -12 12 -9 0 -16 7 -16 15
0 8 -4 15 -9 15 -5 0 -8 -12 -7 -27z"/>
<path d="M1560 1393 c0 -19 -38 -49 -55 -44 -5 1 -14 -4 -20 -12 -5 -8 -14
-14 -20 -15 -20 -1 -15 -21 7 -24 13 -2 22 -9 20 -17 -1 -7 5 -11 15 -9 10 2
28 -7 39 -19 12 -13 28 -23 37 -23 8 0 34 -16 57 -35 23 -19 45 -35 48 -35 4
0 25 -16 47 -35 60 -53 60 -53 78 -43 13 7 26 2 50 -16 19 -15 39 -26 45 -26
7 0 12 -4 12 -9 0 -5 20 -8 45 -7 41 1 44 0 28 -12 -16 -13 -14 -14 19 -10 21
2 39 1 40 -3 2 -4 32 -10 68 -14 l65 -6 -30 17 c-16 10 -34 23 -40 29 -5 7
-17 15 -25 18 -8 3 10 6 40 7 30 1 78 5 105 10 45 7 42 8 -35 7 -114 0 -204 9
-232 24 -13 7 -34 12 -48 10 -23 -2 -29 5 -48 51 -12 29 -22 59 -22 66 0 20
51 35 78 23 17 -8 28 -7 46 4 12 8 25 13 28 10 11 -12 333 -10 363 2 41 16
179 50 245 62 52 9 50 9 -30 6 -47 -2 -131 -5 -188 -7 -75 -3 -106 -8 -112
-18 -7 -12 -10 -11 -16 4 -5 14 -14 17 -35 12 -16 -3 -29 -1 -29 4 0 5 -40 7
-97 4 -54 -3 -117 -6 -140 -7 -24 -1 -43 -4 -43 -7 0 -3 -20 -6 -44 -6 -25 -1
-53 -5 -63 -9 -31 -14 -52 -15 -58 -4 -5 7 -12 6 -22 -2 -8 -7 -24 -13 -37
-14 -19 0 -21 4 -18 30 5 30 5 30 -17 11 -21 -19 -21 -19 -21 3 0 14 7 25 20
28 12 3 20 14 20 27 -1 19 -2 19 -11 4 -15 -27 -32 -22 -27 7 6 31 -1 31 -31
4 -20 -19 -22 -19 -19 -3 2 11 -4 20 -14 22 -12 2 -18 -3 -18 -15z m525 -82
c-3 -5 5 -12 17 -14 20 -4 19 -4 -4 -6 -27 -1 -35 8 -21 22 9 10 15 8 8 -2z
m-248 -123 c-3 -8 -6 -5 -6 6 -1 11 2 17 5 13 3 -3 4 -12 1 -19z"/>
<path d="M2910 1390 c-75 -24 -145 -40 -178 -40 -24 0 -27 -4 -29 -37 -2 -41
-21 -93 -34 -93 -5 0 -9 -11 -9 -24 0 -14 -8 -31 -19 -38 -10 -7 -21 -23 -25
-35 -5 -17 -15 -23 -34 -22 -15 0 -21 3 -14 6 6 2 10 9 7 13 -8 14 -34 0 -29
-15 7 -16 -21 -43 -52 -51 -13 -3 -24 -10 -24 -14 0 -12 -65 -40 -93 -40 -13
0 -30 -7 -38 -16 -12 -14 -8 -15 35 -9 27 4 61 14 75 21 14 8 36 14 47 14 12
0 25 7 28 16 5 13 9 14 20 5 11 -9 17 -8 29 4 9 8 18 15 21 15 2 0 17 5 33 11
22 8 25 12 13 20 -11 8 -8 9 13 4 16 -3 26 -2 23 3 -8 13 25 41 81 67 26 13
86 59 133 104 47 44 97 85 113 92 45 19 30 61 -21 58 -9 0 -42 -9 -72 -19z"/>
<path d="M3060 1380 c0 -5 5 -10 11 -10 5 0 7 5 4 10 -3 6 -8 10 -11 10 -2 0
-4 -4 -4 -10z"/>
<path d="M1117 1363 c-13 -13 -7 -21 13 -16 11 3 17 9 14 14 -6 11 -18 12 -27
2z"/>
<path d="M2415 1090 l-30 -8 33 -1 c17 0 32 4 32 9 0 6 -1 9 -2 9 -2 -1 -16
-5 -33 -9z"/>
<path d="M2308 1073 c7 -3 16 -2 19 1 4 3 -2 6 -13 5 -11 0 -14 -3 -6 -6z"/>
<path d="M1880 990 c0 -5 5 -10 10 -10 6 0 10 5 10 10 0 6 -4 10 -10 10 -5 0
-10 -4 -10 -10z"/>
<path d="M2225 980 c3 -5 8 -10 11 -10 2 0 4 5 4 10 0 6 -5 10 -11 10 -5 0 -7
-4 -4 -10z"/>
<path d="M2273 973 c9 -2 25 -2 35 0 9 3 1 5 -18 5 -19 0 -27 -2 -17 -5z"/>
<path d="M3718 53 c-15 -18 -14 -53 2 -53 4 0 11 11 14 25 4 14 11 25 16 25 6
0 10 5 10 10 0 16 -26 11 -42 -7z"/>
<path d="M2405 10 c-3 -5 -1 -10 4 -10 6 0 11 5 11 10 0 6 -2 10 -4 10 -3 0
-8 -4 -11 -10z"/>
</g>
</svg>
