<svg id="Layer_1" data-name="Layer 1" xmlns="http://www.w3.org/2000/svg" viewBox="0 0 569.39 151.46"><defs><style>.cls-1{fill:#292929;}.cls-2{fill:#e83f54;}</style></defs><title>MagineTV_Logo</title><path class="cls-1" d="M48.74,107.37L25.6,66.26v53.63a8.49,8.49,0,0,1-8.4,8.4,8.49,8.49,0,0,1-8.4-8.4V35.17a8.49,8.49,0,0,1,8.4-8.4,8.31,8.31,0,0,1,7.52,4.71L56,87.48l31.24-56a8.3,8.3,0,0,1,7.52-4.71,8.49,8.49,0,0,1,8.4,8.4v84.72a8.4,8.4,0,1,1-16.8,0V66.26L63.18,107.37a8.38,8.38,0,0,1-14.44,0" transform="translate(-8.8 -5.27)"/><path class="cls-1" d="M131,77.9a7,7,0,0,1-11.35-5.45,7.27,7.27,0,0,1,1.92-4.86C125.66,63,133,58.16,145.7,58.16c18.27,0,29.17,9,29.17,24.61v37.72a7.81,7.81,0,1,1-15.61,0c-4,6.34-10.46,8.55-19.3,8.55-14.44,0-24-9-24-22.25C115.93,93.08,127,86,139.8,86h19.3V83.35c0-6.63-4.86-11.05-13.41-11.05-6.49,0-11.05,2.95-14.74,5.6m28.14,24.61V98.38H141.87c-6.48,0-10,3.1-10,8.4,0,5.6,4,9,12.23,9,7.81,0,15-5,15-13.26" transform="translate(-8.8 -5.27)"/><path class="cls-1" d="M185.93,93.52c0-24,11.64-35.36,31.53-35.36,17.83,0,30.5,9.87,30.5,29.47V124.9c0,20.34-10,31.83-31.82,31.83-11.94,0-20.78-3.68-25.78-9.72a6.7,6.7,0,0,1-1.47-4.27,7.17,7.17,0,0,1,7.07-7.07c1.77,0,3,.59,4.72,1.77,3.68,2.65,8.55,5.75,15.47,5.75,10.46,0,15.77-5.45,15.77-14.44v-5.6c-2.95,2.95-9,5.9-16.06,5.9-18.57,0-29.91-11.49-29.91-35.51M232,87.63c0-10.17-6-15.91-14.59-15.91-10.17,0-15.77,7.37-15.77,21.81s5.75,22,15.77,22C226.3,115.47,232,108,232,108V87.63Z" transform="translate(-8.8 -5.27)"/><path class="cls-1" d="M259.3,36.51c0-6.78,3.39-9.72,9.43-9.72,6.19,0,9.58,2.95,9.58,9.72,0,5.75-3.38,9.28-9.58,9.28-6,0-9.43-3.53-9.43-9.28M276.68,121a8,8,0,1,1-15.91,0V67a8,8,0,1,1,15.91,0v54Z" transform="translate(-8.8 -5.27)"/><path class="cls-1" d="M349,83.79v37.49a7.68,7.68,0,0,1-8,7.66c-4.71,0-8-3.24-8-7.66V86.74c0-8.4-3.39-14.15-13-14.15-11.05,0-14.74,6.48-14.74,15.18v33.51a8,8,0,0,1-15.91,0V67a8,8,0,1,1,15.91,0c2.8-4.27,9-8.84,18.86-8.84,20,0,24.75,12.82,24.75,25.64" transform="translate(-8.8 -5.27)"/><path class="cls-1" d="M393.66,58.16c24.9,0,29.47,19.15,29.47,29.32,0,5.45,0,11.79-9,11.79H377.75c0,10.61,7.51,15.47,17.24,15.47a25.19,25.19,0,0,0,14.59-4.57,7.94,7.94,0,0,1,4.72-1.62,6.92,6.92,0,0,1,6.92,6.92,7.38,7.38,0,0,1-2.51,5.45c-2.5,2.36-10.32,8.1-23.72,8.1-20.49,0-33.15-11.05-33.15-35.66,0-22.55,11.79-35.22,31.83-35.22M378.19,86h29.17c0-7.22-4.12-14.29-13.7-14.29-8.55,0-14.74,4.86-15.47,14.29" transform="translate(-8.8 -5.27)"/><path class="cls-2" d="M577.51,12.31a10.77,10.77,0,0,0-5.71-6.08,11,11,0,0,0-14.43,5.33l-36.9,79.69-16-38.64a10.94,10.94,0,0,0-20.16,0,10.6,10.6,0,0,0,0,8.21l25.57,61.66a10.9,10.9,0,0,0,9.91,6.69h0.18a10.94,10.94,0,0,0,9.91-6.29L577.21,20.53A10.62,10.62,0,0,0,577.51,12.31Z" transform="translate(-8.8 -5.27)"/><path class="cls-2" d="M459.69,5.3H415.17a10.8,10.8,0,1,0,0,21.6h33.59v91.42a10.92,10.92,0,0,0,21.85,0V16.1A10.87,10.87,0,0,0,459.69,5.3Z" transform="translate(-8.8 -5.27)"/></svg>