<svg xmlns="http://www.w3.org/2000/svg" width="200" height="24" viewBox="0 0 200 24">
    <g fill="#34454E" fill-rule="evenodd">
        <path d="M31.073 15.608v-.046c0-4.584 3.484-8.424 8.413-8.424 4.93 0 8.365 3.794 8.365 8.378v.046c0 4.585-3.483 8.425-8.413 8.425s-8.365-3.795-8.365-8.379zm13.822 0v-.046c0-3.166-2.27-5.795-5.457-5.795-3.188 0-5.409 2.584-5.409 5.75v.045c0 3.166 2.27 5.795 5.457 5.795 3.188 0 5.409-2.583 5.409-5.749zM53.308 16.795V7.418h2.82v9.26c0 3.026 1.534 4.655 4.056 4.655 2.522 0 4.034-1.534 4.034-4.538V7.418h2.818v9.24c0 4.853-2.703 7.304-6.898 7.304-4.194 0-6.83-2.443-6.83-7.167zM77.145 10.072H72.06V7.418h13.017v2.654h-5.087v13.634h-2.844zM90.362 7.418h11.942v2.605h-9.135v4.444h8.09v2.608h-8.09v6.631h-2.807zM107.84 7.418h2.818v16.288h-2.818zM119.67 10.072h-5.09V7.418h13.02v2.654h-5.089v13.634h-2.841zM136.815 10.072h-5.087V7.418h13.018v2.654h-5.087v13.634h-2.844zM150.016 7.418h11.896v2.56h-9.073v4.236h8.045v2.559h-8.045v4.374h9.19v2.56h-12.013zM167.67 7.418h7.15c2.019 0 3.598.604 4.631 1.618a4.972 4.972 0 0 1 1.332 3.506v.046c0 2.675-1.582 4.282-3.827 4.935l4.33 6.164h-3.326l-3.941-5.663h-3.532v5.663h-2.817V7.418zm6.945 8.074c2.016 0 3.3-1.079 3.3-2.72v-.05c0-1.744-1.239-2.696-3.324-2.696h-4.104v5.469l4.128-.003zM190.684 17.285l-6.37-9.867h3.324l4.492 7.214 4.528-7.214h3.23l-6.37 9.797v6.491h-2.834zM20.589 14.34c-.099-.835.095-1.693.484-2.003.442-.348 1.105-.256 1.598.186.751-1.37-.588-1.968-.588-1.968s.332-.79-1.963-1.858a5.05 5.05 0 0 1-2.152-1.888 2.77 2.77 0 0 0 .25 2.195c-.33.335-.6.726-.799 1.154a3.6 3.6 0 0 1-.191.316c-1.667-.251-1.726-3.803-1.726-3.803a1.272 1.272 0 0 0-.61-1.01L9.19 1.884C8.575 1.456 7.728.787 7.342.089c-.133.403-.19.827-.168 1.251.07 1.402 1.066 2.78 2.272 3.463A5.793 5.793 0 0 1 6.6 2.616c-.085.42-.094.854-.024 1.278.354 2.028 2.11 3.495 4.144 3.462a5.515 5.515 0 0 1-3.963-1.289c.05.443.173.874.368 1.273a4.116 4.116 0 0 0 3.936 2.368 5.018 5.018 0 0 1-2.663-.051c.232.396.526.75.87 1.051.679.6 1.534.956 2.432 1.012-.418.453-2.34-.02-2.34-.02-1.332-.234-2.584-.061-3.705 1.187l-.016-.04a1.266 1.266 0 0 1-.586.083 1.063 1.063 0 0 1-.748-.458c-.336-.394-.31-.95.077-1.65.777-1.403.389-2.346-.072-2.891a2.461 2.461 0 0 0-1.529-.86 1.98 1.98 0 0 0-1.094-.338 2.132 2.132 0 0 0-1.545.715l-.136.143.136.143c.396.443.955.702 1.545.715a1.963 1.963 0 0 0 1.041-.305c.306.051.583.21.783.45.336.397.309.952-.08 1.65-.778 1.403-.389 2.35.075 2.894.38.41.874.692 1.416.809a6.394 6.394 0 0 0-.482 1.755 6.54 6.54 0 0 1-.06.427 4.53 4.53 0 0 1-2.206 3.46c.044.886-.14 1.77-.533 2.564.402.572.747 1.182 1.031 1.823h2.87a.482.482 0 0 0 .24-.478.688.688 0 0 0-.655-.598.584.584 0 0 0-.21.032s-1.097.426-1.451-.318c-.283-.642-.096-1.699.652-2.128.557-.32 2.86-1.127 3.215-1.833.316-.631.73-1.672 1.153-2.017.25.881.634 2.67-1.21 3.287a5.21 5.21 0 0 1-.66 2.273 9.577 9.577 0 0 1 1.033 1.782h2.847a.484.484 0 0 0 .248-.477.688.688 0 0 0-.655-.599.595.595 0 0 0-.21.033s-1.09.442-1.444-.3A1.612 1.612 0 0 1 9.1 20.63c.764-.375 2.567-1.18 2.988-1.75.466-.569.29-2.586.29-2.586.985.33 1.916.809 2.762 1.418.234.707.22 1.454-.919 1.87 0 .46-.09 1.706-.628 2.618.279.36.534.738.764 1.132a.63.63 0 0 1-.442-.056.866.866 0 0 1-.107-.065c.053.29.238.539.498.671a.867.867 0 0 0 .381.097H17.5a.474.474 0 0 0 .232-.474.69.69 0 0 0-.658-.599.603.603 0 0 0-.21.03s-1.05.54-1.404-.21a1.68 1.68 0 0 1 .73-2.096c.376-.17.988-.431 1.582-.72.175.152.33.326.46.518.238.365.332.806.267 1.238.774.34 1.416.927 1.83 1.672a.678.678 0 0 1-.527-.127c.05.29.234.54.495.671.119.062.25.095.383.097h2.796a.482.482 0 0 0 .245-.474.688.688 0 0 0-.655-.599.584.584 0 0 0-.21.033s-.887.428-1.366-.14c-.84-.988-1.433-2.697-1.667-4.348a6.43 6.43 0 0 0 .767-4.11z"/>
    </g>
</svg>
