<?xml version="1.0" ?><!DOCTYPE svg  PUBLIC '-//W3C//DTD SVG 1.1//EN'  'http://www.w3.org/Graphics/SVG/1.1/DTD/svg11.dtd'><svg enable-background="new 0 0 100 100" height="100px" id="Layer_1" version="1.1" viewBox="0 0 100 100" width="100px" xml:space="preserve" xmlns="http://www.w3.org/2000/svg" xmlns:xlink="http://www.w3.org/1999/xlink"><g><g><path d="M90,74.273C90,76.333,88.331,78,86.274,78h-72.55C11.668,78,10,76.333,10,74.273V25.724    C10,23.668,11.668,22,13.725,22h72.552C88.333,22,90,23.668,90,25.724V74.273L90,74.273z" fill="#E6E7E8"/><g><path d="M10,74.273C10,76.333,11.668,78,13.725,78h72.552C88.333,78,90,76.333,90,74.273v-0.604H10V74.273z" fill="#DA2128"/><rect fill="#DA2128" height="4.333" width="80" x="10" y="65.041"/><rect fill="#DA2128" height="4.324" width="80" x="10" y="56.418"/><rect fill="#DA2128" height="4.333" width="80" x="10" y="47.79"/><rect fill="#DA2128" height="4.333" width="80" x="10" y="39.166"/><rect fill="#DA2128" height="4.332" width="80" x="10" y="30.541"/><path d="M90,25.724C90,23.668,88.331,22,86.274,22h-72.55C11.668,22,10,23.668,10,25.724v0.61h80V25.724z" fill="#DA2128"/></g><path d="M51.798,22H13.716C11.664,22.003,10,23.67,10,25.724v26.415h41.798V22z" fill="#006BB5"/><g><polygon fill="#EDEDEE" points="12.814,22.679 13.223,23.908 14.476,23.908 13.463,24.668 13.841,25.914 12.814,25.151      11.799,25.914 12.194,24.668 11.166,23.908 12.42,23.908    "/><polygon fill="#EDEDEE" points="19.694,22.679 20.087,23.908 21.356,23.908 20.344,24.668 20.738,25.914 19.694,25.151      18.695,25.914 19.089,24.668 18.061,23.908 19.316,23.908    "/><polygon fill="#EDEDEE" points="26.908,22.679 27.288,23.908 28.541,23.908 27.526,24.668 27.921,25.914 26.908,25.151      25.88,25.914 26.257,24.668 25.246,23.908 26.514,23.908    "/><polygon fill="#EDEDEE" points="34.09,22.679 34.485,23.908 35.738,23.908 34.71,24.668 35.105,25.914 34.09,25.151      33.062,25.914 33.439,24.668 32.442,23.908 33.699,23.908    "/><polygon fill="#EDEDEE" points="41.274,22.679 41.652,23.908 42.939,23.908 41.909,24.668 42.288,25.914 41.274,25.151      40.245,25.914 40.639,24.668 39.61,23.908 40.879,23.908    "/><polygon fill="#EDEDEE" points="16.125,26.06 16.504,27.299 17.774,27.299 16.745,28.06 17.14,29.304 16.125,28.543      15.097,29.304 15.491,28.06 14.446,27.299 15.733,27.299    "/><polygon fill="#EDEDEE" points="23.005,26.06 23.4,27.299 24.656,27.299 23.641,28.06 24.033,29.304 23.005,28.543      21.977,29.304 22.371,28.06 21.343,27.299 22.614,27.299    "/><polygon fill="#EDEDEE" points="30.189,26.06 30.583,27.299 31.852,27.299 30.824,28.06 31.217,29.304 30.189,28.543      29.16,29.304 29.568,28.06 28.527,27.299 29.796,27.299    "/><polygon fill="#EDEDEE" points="37.372,26.06 37.766,27.299 39.035,27.299 38.008,28.06 38.4,29.304 37.372,28.543      36.359,29.304 36.753,28.06 35.726,27.299 36.979,27.299    "/><polygon fill="#EDEDEE" points="44.569,26.06 44.948,27.299 46.217,27.299 45.206,28.06 45.583,29.304 44.569,28.543      43.541,29.304 43.935,28.06 42.92,27.299 44.176,27.299    "/><polygon fill="#EDEDEE" points="16.125,32.23 16.504,33.458 17.774,33.458 16.745,34.228 17.14,35.463 16.125,34.703      15.097,35.463 15.491,34.228 14.446,33.458 15.733,33.458    "/><polygon fill="#EDEDEE" points="23.005,32.23 23.4,33.458 24.656,33.458 23.641,34.228 24.033,35.463 23.005,34.703      21.977,35.463 22.371,34.228 21.343,33.458 22.614,33.458    "/><polygon fill="#EDEDEE" points="30.189,32.23 30.583,33.458 31.852,33.458 30.824,34.228 31.217,35.463 30.189,34.703      29.16,35.463 29.568,34.228 28.527,33.458 29.796,33.458    "/><polygon fill="#EDEDEE" points="37.372,32.23 37.766,33.458 39.035,33.458 38.008,34.228 38.4,35.463 37.372,34.703      36.359,35.463 36.753,34.228 35.726,33.458 36.979,33.458    "/><polygon fill="#EDEDEE" points="44.569,32.23 44.948,33.458 46.217,33.458 45.206,34.228 45.583,35.463 44.569,34.703      43.541,35.463 43.935,34.228 42.92,33.458 44.176,33.458    "/><polygon fill="#EDEDEE" points="16.125,38.387 16.504,39.625 17.774,39.625 16.745,40.394 17.14,41.615 16.125,40.846      15.097,41.615 15.491,40.394 14.446,39.625 15.733,39.625    "/><polygon fill="#EDEDEE" points="23.005,38.387 23.4,39.625 24.656,39.625 23.641,40.394 24.033,41.615 23.005,40.846      21.977,41.615 22.371,40.394 21.343,39.625 22.614,39.625    "/><polygon fill="#EDEDEE" points="30.189,38.387 30.583,39.625 31.852,39.625 30.824,40.394 31.217,41.615 30.189,40.846      29.16,41.615 29.568,40.394 28.527,39.625 29.796,39.625    "/><polygon fill="#EDEDEE" points="37.372,38.387 37.766,39.625 39.035,39.625 38.008,40.394 38.4,41.615 37.372,40.846      36.359,41.615 36.753,40.394 35.726,39.625 36.979,39.625    "/><polygon fill="#EDEDEE" points="44.569,38.387 44.948,39.625 46.217,39.625 45.206,40.394 45.583,41.615 44.569,40.846      43.541,41.615 43.935,40.394 42.92,39.625 44.176,39.625    "/><polygon fill="#EDEDEE" points="16.125,44.548 16.504,45.775 17.774,45.775 16.745,46.548 17.14,47.783 16.125,47.022      15.097,47.783 15.491,46.548 14.446,45.775 15.733,45.775    "/><polygon fill="#EDEDEE" points="23.005,44.548 23.4,45.775 24.656,45.775 23.641,46.548 24.033,47.783 23.005,47.022      21.977,47.783 22.371,46.548 21.343,45.775 22.614,45.775    "/><polygon fill="#EDEDEE" points="30.189,44.548 30.583,45.775 31.852,45.775 30.824,46.548 31.217,47.783 30.189,47.022      29.16,47.783 29.568,46.548 28.527,45.775 29.796,45.775    "/><polygon fill="#EDEDEE" points="37.372,44.548 37.766,45.775 39.035,45.775 38.008,46.548 38.4,47.783 37.372,47.022      36.359,47.783 36.753,46.548 35.726,45.775 36.979,45.775    "/><polygon fill="#EDEDEE" points="44.569,44.548 44.948,45.775 46.217,45.775 45.206,46.548 45.583,47.783 44.569,47.022      43.541,47.783 43.935,46.548 42.92,45.775 44.176,45.775    "/><polygon fill="#EDEDEE" points="48.457,22.679 48.85,23.908 50.104,23.908 49.09,24.668 49.485,25.914 48.457,25.151      47.428,25.914 47.821,24.668 46.809,23.908 48.063,23.908    "/><polygon fill="#EDEDEE" points="12.814,28.837 13.223,30.083 14.476,30.083 13.463,30.837 13.841,32.073 12.814,31.313      11.799,32.073 12.194,30.837 11.166,30.083 12.42,30.083    "/><polygon fill="#EDEDEE" points="19.694,28.837 20.087,30.083 21.356,30.083 20.344,30.837 20.738,32.073 19.694,31.313      18.695,32.073 19.089,30.837 18.061,30.083 19.316,30.083    "/><polygon fill="#EDEDEE" points="26.908,28.837 27.288,30.083 28.541,30.083 27.526,30.837 27.921,32.073 26.908,31.313      25.88,32.073 26.257,30.837 25.246,30.083 26.514,30.083    "/><polygon fill="#EDEDEE" points="34.09,28.837 34.485,30.083 35.738,30.083 34.71,30.837 35.105,32.073 34.09,31.313      33.062,32.073 33.439,30.837 32.442,30.083 33.699,30.083    "/><polygon fill="#EDEDEE" points="41.274,28.837 41.652,30.083 42.939,30.083 41.909,30.837 42.288,32.073 41.274,31.313      40.245,32.073 40.639,30.837 39.61,30.083 40.879,30.083    "/><polygon fill="#EDEDEE" points="48.457,28.837 48.85,30.083 50.104,30.083 49.09,30.837 49.485,32.073 48.457,31.313      47.428,32.073 47.821,30.837 46.809,30.083 48.063,30.083    "/><polygon fill="#EDEDEE" points="12.814,34.995 13.223,36.228 14.476,36.228 13.463,36.998 13.841,38.232 12.814,37.462      11.799,38.232 12.194,36.998 11.166,36.228 12.42,36.228    "/><polygon fill="#EDEDEE" points="19.694,34.995 20.087,36.228 21.356,36.228 20.344,36.998 20.738,38.232 19.694,37.462      18.695,38.232 19.089,36.998 18.061,36.228 19.316,36.228    "/><polygon fill="#EDEDEE" points="26.908,34.995 27.288,36.228 28.541,36.228 27.526,36.998 27.921,38.232 26.908,37.462      25.88,38.232 26.257,36.998 25.246,36.228 26.514,36.228    "/><polygon fill="#EDEDEE" points="34.09,34.995 34.485,36.228 35.738,36.228 34.71,36.998 35.105,38.232 34.09,37.462      33.062,38.232 33.439,36.998 32.442,36.228 33.699,36.228    "/><polygon fill="#EDEDEE" points="41.274,34.995 41.652,36.228 42.939,36.228 41.909,36.998 42.288,38.232 41.274,37.462      40.245,38.232 40.639,36.998 39.61,36.228 40.879,36.228    "/><polygon fill="#EDEDEE" points="48.457,34.995 48.85,36.228 50.104,36.228 49.09,36.998 49.485,38.232 48.457,37.462      47.428,38.232 47.821,36.998 46.809,36.228 48.063,36.228    "/><polygon fill="#EDEDEE" points="12.814,41.165 13.223,42.403 14.476,42.403 13.463,43.156 13.841,44.392 12.814,43.631      11.799,44.392 12.194,43.156 11.166,42.403 12.42,42.403    "/><polygon fill="#EDEDEE" points="19.694,41.165 20.087,42.403 21.356,42.403 20.344,43.156 20.738,44.392 19.694,43.631      18.695,44.392 19.089,43.156 18.061,42.403 19.316,42.403    "/><polygon fill="#EDEDEE" points="26.908,41.165 27.288,42.403 28.541,42.403 27.526,43.156 27.921,44.392 26.908,43.631      25.88,44.392 26.257,43.156 25.246,42.403 26.514,42.403    "/><polygon fill="#EDEDEE" points="34.09,41.165 34.485,42.403 35.738,42.403 34.71,43.156 35.105,44.392 34.09,43.631      33.062,44.392 33.439,43.156 32.442,42.403 33.699,42.403    "/><polygon fill="#EDEDEE" points="41.274,41.165 41.652,42.403 42.939,42.403 41.909,43.156 42.288,44.392 41.274,43.631      40.245,44.392 40.639,43.156 39.61,42.403 40.879,42.403    "/><polygon fill="#EDEDEE" points="48.457,41.165 48.85,42.403 50.104,42.403 49.09,43.156 49.485,44.392 48.457,43.631      47.428,44.392 47.821,43.156 46.809,42.403 48.063,42.403    "/><polygon fill="#EDEDEE" points="12.814,47.311 13.223,48.561 14.476,48.561 13.463,49.317 13.841,50.553 12.814,49.79      11.799,50.553 12.194,49.317 11.166,48.561 12.42,48.561    "/><polygon fill="#EDEDEE" points="19.694,47.311 20.087,48.561 21.356,48.561 20.344,49.317 20.738,50.553 19.694,49.79      18.695,50.553 19.089,49.317 18.061,48.561 19.316,48.561    "/><polygon fill="#EDEDEE" points="26.908,47.311 27.288,48.561 28.541,48.561 27.526,49.317 27.921,50.553 26.908,49.79      25.88,50.553 26.257,49.317 25.246,48.561 26.514,48.561    "/><polygon fill="#EDEDEE" points="34.09,47.311 34.485,48.561 35.738,48.561 34.71,49.317 35.105,50.553 34.09,49.79      33.062,50.553 33.439,49.317 32.442,48.561 33.699,48.561    "/><polygon fill="#EDEDEE" points="41.274,47.311 41.652,48.561 42.939,48.561 41.909,49.317 42.288,50.553 41.274,49.79      40.245,50.553 40.639,49.317 39.61,48.561 40.879,48.561    "/><polygon fill="#EDEDEE" points="48.457,47.311 48.85,48.561 50.104,48.561 49.09,49.317 49.485,50.553 48.457,49.79      47.428,50.553 47.821,49.317 46.809,48.561 48.063,48.561    "/></g></g></g></svg>